<?xml version="1.0" encoding="utf-8"?>
<!-- Generator: Adobe Illustrator 26.0.2, SVG Export Plug-In . SVG Version: 6.00 Build 0)  -->
<svg version="1.1" id="Layer_1" focusable="false" xmlns="http://www.w3.org/2000/svg" xmlns:xlink="http://www.w3.org/1999/xlink"
	 x="0px" y="0px" viewBox="0 0 384 512" style="enable-background:new 0 0 384 512;" xml:space="preserve">
<style type="text/css">
	.st0{fill:#105205;}
</style>
<path class="st0" d="M378.3,378.5L298.4,288h30.6c9,0,17-5,20.8-13.1c3.8-8,2.5-17.3-3.3-24.1L268.4,160h28.9
	c9.1,0,17.3-5.4,20.9-13.6c3.5-8.1,1.9-17.6-4.2-24.1L203.7,4.8c-6-6.4-17.3-6.4-23.3,0L70.1,122.3c-6.1,6.5-7.8,15.9-4.2,24.1
	c3.6,8.3,11.8,13.6,20.9,13.6h28.9l-78.1,90.9c-5.8,6.8-7.1,16-3.3,24c3.8,8,11.8,13,20.8,13h30.6L5.7,378.5
	c-6,6.8-7.4,16.1-3.6,24.3c3.8,8,12,13.2,21,13.2H160v24.5l-30.3,48.4c-5.3,10.6,2.4,23.2,14.3,23.2h96c11.9,0,19.6-12.5,14.3-23.2
	L224,440.5V416h136.9c9,0,17.3-5.2,21-13.2C385.7,394.6,384.3,385.3,378.3,378.5z"/>
</svg>
